<mxfile host="app.diagrams.net" modified="2024-01-08T20:48:26.514Z" agent="Mozilla/5.0 (Windows NT 10.0; Win64; x64) AppleWebKit/537.36 (KHTML, like Gecko) Chrome/118.0.0.0 YaBrowser/23.11.0.0 Safari/537.36" version="22.1.17" etag="7c1k7c3LpR0orGZQ2apd" type="github">
  <diagram name="Страница — 1" id="635_9BKNuRTdBm7P0EqS">
    <mxGraphModel>
      <root>
        <mxCell id="0" />
        <mxCell id="1" parent="0" />
      </root>
    </mxGraphModel>
  </diagram>
</mxfile>
